<svg xmlns="http://www.w3.org/2000/svg" xmlns:xlink="http://www.w3.org/1999/xlink" width="488" zoomAndPan="magnify" viewBox="0 0 366 122.249994" height="163" preserveAspectRatio="xMidYMid meet" version="1.0"><defs><g/><clipPath id="72246f0c3f"><path d="M 262 24.066406 L 356.539062 24.066406 L 356.539062 97.171875 L 262 97.171875 Z M 262 24.066406 " clip-rule="nonzero"/></clipPath><clipPath id="876bf5e21f"><path d="M 1.117188 103 L 10 103 L 10 114 L 1.117188 114 Z M 1.117188 103 " clip-rule="nonzero"/></clipPath></defs><g clip-path="url(#72246f0c3f)"><path fill="#000002" d="M 304.488281 39.910156 C 305.417969 38.109375 306.066406 36.675781 306.863281 35.324219 C 309.964844 30.066406 314.183594 26.136719 320.429688 25.125 C 325.523438 24.296875 330.453125 25.15625 335.042969 27.578125 C 341.109375 30.773438 344.59375 35.914062 345.972656 42.488281 C 347.074219 47.726562 346.472656 52.898438 344.785156 57.953125 C 344.597656 58.523438 344.339844 59.070312 344.082031 59.710938 C 336.660156 59.710938 329.289062 59.710938 321.648438 59.710938 C 321.125 58.738281 320.5 57.632812 319.917969 56.503906 C 319.082031 54.886719 318.246094 53.269531 317.464844 51.625 C 316.796875 50.226562 315.878906 49.109375 314.210938 49.214844 C 312.589844 49.320312 311.742188 50.410156 311.199219 51.914062 C 309.707031 56.050781 308.109375 60.148438 306.550781 64.257812 C 306.417969 64.609375 306.257812 64.953125 305.992188 65.585938 C 305.671875 64.972656 305.398438 64.585938 305.253906 64.15625 C 303.378906 58.550781 301.519531 52.9375 299.652344 47.328125 C 299.535156 46.96875 299.449219 46.597656 299.308594 46.246094 C 298.785156 44.945312 297.882812 44.046875 296.421875 44.035156 C 295 44.023438 293.988281 44.769531 293.445312 46.105469 C 292.082031 49.480469 290.710938 52.851562 289.335938 56.222656 C 288.875 57.34375 288.390625 58.453125 287.8125 59.820312 C 286.953125 59.820312 286.058594 59.820312 285.164062 59.820312 C 282.953125 59.828125 280.742188 59.769531 278.535156 59.859375 C 276.777344 59.929688 275.675781 61.125 275.636719 62.757812 C 275.597656 64.304688 276.5625 65.519531 278.125 65.835938 C 278.566406 65.925781 279.035156 65.914062 279.488281 65.914062 C 282.765625 65.921875 286.042969 65.871094 289.316406 65.933594 C 291.265625 65.96875 292.453125 65.125 293.132812 63.335938 C 293.992188 61.078125 294.949219 58.851562 296.035156 56.191406 C 296.507812 57.535156 296.863281 58.480469 297.179688 59.4375 C 298.996094 64.902344 300.808594 70.371094 302.613281 75.839844 C 303.074219 77.242188 303.820312 78.277344 305.453125 78.367188 C 307.054688 78.457031 308.039062 77.835938 308.714844 76.101562 C 309.976562 72.847656 311.175781 69.574219 312.402344 66.3125 C 313.144531 64.328125 313.894531 62.347656 314.765625 60.027344 C 315.382812 61.222656 315.9375 62.097656 316.296875 63.046875 C 317.109375 65.195312 318.585938 65.972656 320.882812 65.953125 C 331.320312 65.871094 341.757812 65.917969 352.195312 65.917969 C 352.957031 65.917969 353.726562 65.878906 354.476562 65.976562 C 355.652344 66.128906 356.476562 67.0625 356.488281 68.105469 C 356.496094 69.132812 355.675781 70.082031 354.511719 70.28125 C 353.917969 70.378906 353.300781 70.335938 352.691406 70.339844 C 348.347656 70.34375 344.003906 70.359375 339.664062 70.335938 C 338.6875 70.328125 337.972656 70.546875 337.316406 71.378906 C 330.421875 80.15625 321.757812 86.914062 312.355469 92.800781 C 310.226562 94.128906 308.011719 95.316406 305.851562 96.597656 C 304.996094 97.101562 304.222656 97.171875 303.304688 96.660156 C 291.714844 90.230469 281.003906 82.683594 272.511719 72.371094 C 268.066406 66.972656 264.632812 61.015625 263.214844 54.09375 C 261.828125 47.324219 262.382812 40.757812 266.15625 34.800781 C 269.992188 28.734375 275.800781 25.714844 282.84375 24.976562 C 291.582031 24.0625 297.796875 27.953125 302.160156 35.242188 C 302.589844 35.957031 302.945312 36.714844 303.320312 37.460938 C 303.65625 38.128906 303.964844 38.8125 304.488281 39.910156 Z M 304.488281 39.910156 " fill-opacity="1" fill-rule="nonzero"/></g><g fill="#000000" fill-opacity="1"><g transform="translate(5.969075, 96.559957)"><g><path d="M 31.609375 1.015625 C 26.117188 1.015625 20.816406 0.238281 15.703125 -1.3125 C 10.585938 -2.875 6.539062 -4.941406 3.5625 -7.515625 L 8.125 -17.78125 C 11.039062 -15.476562 14.613281 -13.597656 18.84375 -12.140625 C 23.082031 -10.679688 27.335938 -9.953125 31.609375 -9.953125 C 36.890625 -9.953125 40.832031 -10.800781 43.4375 -12.5 C 46.050781 -14.195312 47.359375 -16.429688 47.359375 -19.203125 C 47.359375 -21.242188 46.628906 -22.921875 45.171875 -24.234375 C 43.722656 -25.554688 41.878906 -26.585938 39.640625 -27.328125 C 37.398438 -28.078125 34.351562 -28.925781 30.5 -29.875 C 25.070312 -31.164062 20.679688 -32.453125 17.328125 -33.734375 C 13.972656 -35.023438 11.09375 -37.039062 8.6875 -39.78125 C 6.28125 -42.53125 5.078125 -46.242188 5.078125 -50.921875 C 5.078125 -54.847656 6.144531 -58.421875 8.28125 -61.640625 C 10.414062 -64.859375 13.632812 -67.414062 17.9375 -69.3125 C 22.238281 -71.21875 27.507812 -72.171875 33.75 -72.171875 C 38.082031 -72.171875 42.347656 -71.625 46.546875 -70.53125 C 50.753906 -69.445312 54.378906 -67.890625 57.421875 -65.859375 L 53.265625 -55.59375 C 50.140625 -57.425781 46.882812 -58.816406 43.5 -59.765625 C 40.113281 -60.710938 36.828125 -61.1875 33.640625 -61.1875 C 28.421875 -61.1875 24.539062 -60.304688 22 -58.546875 C 19.457031 -56.785156 18.1875 -54.445312 18.1875 -51.53125 C 18.1875 -49.5 18.914062 -47.835938 20.375 -46.546875 C 21.832031 -45.265625 23.675781 -44.25 25.90625 -43.5 C 28.144531 -42.757812 31.195312 -41.914062 35.0625 -40.96875 C 40.351562 -39.738281 44.691406 -38.460938 48.078125 -37.140625 C 51.460938 -35.828125 54.359375 -33.8125 56.765625 -31.09375 C 59.171875 -28.382812 60.375 -24.726562 60.375 -20.125 C 60.375 -16.195312 59.304688 -12.640625 57.171875 -9.453125 C 55.035156 -6.265625 51.800781 -3.722656 47.46875 -1.828125 C 43.132812 0.0664062 37.847656 1.015625 31.609375 1.015625 Z M 31.609375 1.015625 "/></g></g></g><g fill="#000000" fill-opacity="1"><g transform="translate(62.989811, 96.559957)"><g><path d="M 55.703125 -16.46875 L 20.125 -16.46875 L 13.109375 0 L -0.515625 0 L 31.515625 -71.15625 L 44.515625 -71.15625 L 76.640625 0 L 62.8125 0 Z M 51.328125 -26.828125 L 37.90625 -57.9375 L 24.59375 -26.828125 Z M 51.328125 -26.828125 "/></g></g></g><g fill="#000000" fill-opacity="1"><g transform="translate(132.207543, 96.559957)"><g><path d="M 38.828125 -71.15625 C 44.992188 -71.15625 50.363281 -70.132812 54.9375 -68.09375 C 59.507812 -66.0625 63.015625 -63.148438 65.453125 -59.359375 C 67.890625 -55.566406 69.109375 -51.0625 69.109375 -45.84375 C 69.109375 -40.6875 67.890625 -36.191406 65.453125 -32.359375 C 63.015625 -28.535156 59.507812 -25.609375 54.9375 -23.578125 C 50.363281 -21.546875 44.992188 -20.53125 38.828125 -20.53125 L 22.765625 -20.53125 L 22.765625 0 L 9.546875 0 L 9.546875 -71.15625 Z M 38.21875 -31.71875 C 43.976562 -31.71875 48.347656 -32.9375 51.328125 -35.375 C 54.304688 -37.8125 55.796875 -41.300781 55.796875 -45.84375 C 55.796875 -50.382812 54.304688 -53.875 51.328125 -56.3125 C 48.347656 -58.75 43.976562 -59.96875 38.21875 -59.96875 L 22.765625 -59.96875 L 22.765625 -31.71875 Z M 38.21875 -31.71875 "/></g></g></g><g fill="#000000" fill-opacity="1"><g transform="translate(199.087501, 96.559957)"><g><path d="M 31.609375 1.015625 C 26.117188 1.015625 20.816406 0.238281 15.703125 -1.3125 C 10.585938 -2.875 6.539062 -4.941406 3.5625 -7.515625 L 8.125 -17.78125 C 11.039062 -15.476562 14.613281 -13.597656 18.84375 -12.140625 C 23.082031 -10.679688 27.335938 -9.953125 31.609375 -9.953125 C 36.890625 -9.953125 40.832031 -10.800781 43.4375 -12.5 C 46.050781 -14.195312 47.359375 -16.429688 47.359375 -19.203125 C 47.359375 -21.242188 46.628906 -22.921875 45.171875 -24.234375 C 43.722656 -25.554688 41.878906 -26.585938 39.640625 -27.328125 C 37.398438 -28.078125 34.351562 -28.925781 30.5 -29.875 C 25.070312 -31.164062 20.679688 -32.453125 17.328125 -33.734375 C 13.972656 -35.023438 11.09375 -37.039062 8.6875 -39.78125 C 6.28125 -42.53125 5.078125 -46.242188 5.078125 -50.921875 C 5.078125 -54.847656 6.144531 -58.421875 8.28125 -61.640625 C 10.414062 -64.859375 13.632812 -67.414062 17.9375 -69.3125 C 22.238281 -71.21875 27.507812 -72.171875 33.75 -72.171875 C 38.082031 -72.171875 42.347656 -71.625 46.546875 -70.53125 C 50.753906 -69.445312 54.378906 -67.890625 57.421875 -65.859375 L 53.265625 -55.59375 C 50.140625 -57.425781 46.882812 -58.816406 43.5 -59.765625 C 40.113281 -60.710938 36.828125 -61.1875 33.640625 -61.1875 C 28.421875 -61.1875 24.539062 -60.304688 22 -58.546875 C 19.457031 -56.785156 18.1875 -54.445312 18.1875 -51.53125 C 18.1875 -49.5 18.914062 -47.835938 20.375 -46.546875 C 21.832031 -45.265625 23.675781 -44.25 25.90625 -43.5 C 28.144531 -42.757812 31.195312 -41.914062 35.0625 -40.96875 C 40.351562 -39.738281 44.691406 -38.460938 48.078125 -37.140625 C 51.460938 -35.828125 54.359375 -33.8125 56.765625 -31.09375 C 59.171875 -28.382812 60.375 -24.726562 60.375 -20.125 C 60.375 -16.195312 59.304688 -12.640625 57.171875 -9.453125 C 55.035156 -6.265625 51.800781 -3.722656 47.46875 -1.828125 C 43.132812 0.0664062 37.847656 1.015625 31.609375 1.015625 Z M 31.609375 1.015625 "/></g></g></g><g clip-path="url(#876bf5e21f)"><g fill="#101010" fill-opacity="1"><g transform="translate(1.252838, 113.582883)"><g><path d="M 4.1875 0.078125 C 3.476562 0.078125 2.796875 -0.03125 2.140625 -0.25 C 1.492188 -0.476562 0.992188 -0.78125 0.640625 -1.15625 L 1.03125 -1.9375 C 1.382812 -1.59375 1.847656 -1.3125 2.421875 -1.09375 C 2.992188 -0.882812 3.582031 -0.78125 4.1875 -0.78125 C 5.039062 -0.78125 5.679688 -0.9375 6.109375 -1.25 C 6.546875 -1.5625 6.765625 -1.96875 6.765625 -2.46875 C 6.765625 -2.851562 6.644531 -3.160156 6.40625 -3.390625 C 6.175781 -3.617188 5.890625 -3.789062 5.546875 -3.90625 C 5.210938 -4.03125 4.75 -4.164062 4.15625 -4.3125 C 3.4375 -4.5 2.859375 -4.675781 2.421875 -4.84375 C 1.992188 -5.007812 1.628906 -5.265625 1.328125 -5.609375 C 1.023438 -5.953125 0.875 -6.421875 0.875 -7.015625 C 0.875 -7.503906 1 -7.945312 1.25 -8.34375 C 1.507812 -8.738281 1.898438 -9.050781 2.421875 -9.28125 C 2.953125 -9.519531 3.609375 -9.640625 4.390625 -9.640625 C 4.941406 -9.640625 5.476562 -9.5625 6 -9.40625 C 6.519531 -9.257812 6.972656 -9.054688 7.359375 -8.796875 L 7.015625 -7.984375 C 6.617188 -8.253906 6.191406 -8.453125 5.734375 -8.578125 C 5.273438 -8.710938 4.828125 -8.78125 4.390625 -8.78125 C 3.554688 -8.78125 2.925781 -8.617188 2.5 -8.296875 C 2.082031 -7.972656 1.875 -7.554688 1.875 -7.046875 C 1.875 -6.660156 1.988281 -6.351562 2.21875 -6.125 C 2.445312 -5.894531 2.738281 -5.71875 3.09375 -5.59375 C 3.445312 -5.46875 3.914062 -5.332031 4.5 -5.1875 C 5.207031 -5.019531 5.773438 -4.847656 6.203125 -4.671875 C 6.640625 -4.503906 7.003906 -4.25 7.296875 -3.90625 C 7.597656 -3.570312 7.75 -3.113281 7.75 -2.53125 C 7.75 -2.039062 7.617188 -1.597656 7.359375 -1.203125 C 7.109375 -0.804688 6.710938 -0.492188 6.171875 -0.265625 C 5.628906 -0.0351562 4.96875 0.078125 4.1875 0.078125 Z M 4.1875 0.078125 "/></g></g></g></g><g fill="#101010" fill-opacity="1"><g transform="translate(9.652338, 113.582883)"><g><path d="M 1.5625 -9.5625 L 2.5625 -9.5625 L 2.5625 0 L 1.5625 0 Z M 1.5625 -9.5625 "/></g></g></g><g fill="#101010" fill-opacity="1"><g transform="translate(13.776965, 113.582883)"><g><path d="M 4.1875 0.078125 C 3.476562 0.078125 2.796875 -0.03125 2.140625 -0.25 C 1.492188 -0.476562 0.992188 -0.78125 0.640625 -1.15625 L 1.03125 -1.9375 C 1.382812 -1.59375 1.847656 -1.3125 2.421875 -1.09375 C 2.992188 -0.882812 3.582031 -0.78125 4.1875 -0.78125 C 5.039062 -0.78125 5.679688 -0.9375 6.109375 -1.25 C 6.546875 -1.5625 6.765625 -1.96875 6.765625 -2.46875 C 6.765625 -2.851562 6.644531 -3.160156 6.40625 -3.390625 C 6.175781 -3.617188 5.890625 -3.789062 5.546875 -3.90625 C 5.210938 -4.03125 4.75 -4.164062 4.15625 -4.3125 C 3.4375 -4.5 2.859375 -4.675781 2.421875 -4.84375 C 1.992188 -5.007812 1.628906 -5.265625 1.328125 -5.609375 C 1.023438 -5.953125 0.875 -6.421875 0.875 -7.015625 C 0.875 -7.503906 1 -7.945312 1.25 -8.34375 C 1.507812 -8.738281 1.898438 -9.050781 2.421875 -9.28125 C 2.953125 -9.519531 3.609375 -9.640625 4.390625 -9.640625 C 4.941406 -9.640625 5.476562 -9.5625 6 -9.40625 C 6.519531 -9.257812 6.972656 -9.054688 7.359375 -8.796875 L 7.015625 -7.984375 C 6.617188 -8.253906 6.191406 -8.453125 5.734375 -8.578125 C 5.273438 -8.710938 4.828125 -8.78125 4.390625 -8.78125 C 3.554688 -8.78125 2.925781 -8.617188 2.5 -8.296875 C 2.082031 -7.972656 1.875 -7.554688 1.875 -7.046875 C 1.875 -6.660156 1.988281 -6.351562 2.21875 -6.125 C 2.445312 -5.894531 2.738281 -5.71875 3.09375 -5.59375 C 3.445312 -5.46875 3.914062 -5.332031 4.5 -5.1875 C 5.207031 -5.019531 5.773438 -4.847656 6.203125 -4.671875 C 6.640625 -4.503906 7.003906 -4.25 7.296875 -3.90625 C 7.597656 -3.570312 7.75 -3.113281 7.75 -2.53125 C 7.75 -2.039062 7.617188 -1.597656 7.359375 -1.203125 C 7.109375 -0.804688 6.710938 -0.492188 6.171875 -0.265625 C 5.628906 -0.0351562 4.96875 0.078125 4.1875 0.078125 Z M 4.1875 0.078125 "/></g></g></g><g fill="#101010" fill-opacity="1"><g transform="translate(22.039871, 113.582883)"><g><path d="M 3.40625 -8.6875 L 0.046875 -8.6875 L 0.046875 -9.5625 L 7.78125 -9.5625 L 7.78125 -8.6875 L 4.421875 -8.6875 L 4.421875 0 L 3.40625 0 Z M 3.40625 -8.6875 "/></g></g></g><g fill="#101010" fill-opacity="1"><g transform="translate(29.879407, 113.582883)"><g><path d="M 8.3125 -0.875 L 8.3125 0 L 1.5625 0 L 1.5625 -9.5625 L 8.109375 -9.5625 L 8.109375 -8.6875 L 2.5625 -8.6875 L 2.5625 -5.28125 L 7.515625 -5.28125 L 7.515625 -4.421875 L 2.5625 -4.421875 L 2.5625 -0.875 Z M 8.3125 -0.875 "/></g></g></g><g fill="#101010" fill-opacity="1"><g transform="translate(39.016428, 113.582883)"><g><path d="M 11.484375 -9.5625 L 11.484375 0 L 10.515625 0 L 10.515625 -7.640625 L 6.765625 -1.21875 L 6.28125 -1.21875 L 2.53125 -7.609375 L 2.53125 0 L 1.5625 0 L 1.5625 -9.5625 L 2.390625 -9.5625 L 6.546875 -2.46875 L 10.65625 -9.5625 Z M 11.484375 -9.5625 "/></g></g></g><g fill="#101010" fill-opacity="1"><g transform="translate(52.059557, 113.582883)"><g><path d="M 7.546875 -2.546875 L 2.21875 -2.546875 L 1.078125 0 L 0.03125 0 L 4.390625 -9.5625 L 5.390625 -9.5625 L 9.765625 0 L 8.703125 0 Z M 7.1875 -3.375 L 4.890625 -8.5 L 2.59375 -3.375 Z M 7.1875 -3.375 "/></g></g></g><g fill="#101010" fill-opacity="1"><g transform="translate(61.852141, 113.582883)"><g/></g></g><g fill="#101010" fill-opacity="1"><g transform="translate(65.430466, 113.582883)"><g><path d="M 1.5625 -9.5625 L 5.453125 -9.5625 C 6.460938 -9.5625 7.351562 -9.359375 8.125 -8.953125 C 8.894531 -8.546875 9.492188 -7.976562 9.921875 -7.25 C 10.347656 -6.53125 10.5625 -5.707031 10.5625 -4.78125 C 10.5625 -3.851562 10.347656 -3.023438 9.921875 -2.296875 C 9.492188 -1.578125 8.894531 -1.015625 8.125 -0.609375 C 7.351562 -0.203125 6.460938 0 5.453125 0 L 1.5625 0 Z M 5.390625 -0.875 C 6.234375 -0.875 6.96875 -1.039062 7.59375 -1.375 C 8.21875 -1.707031 8.703125 -2.164062 9.046875 -2.75 C 9.398438 -3.332031 9.578125 -4.007812 9.578125 -4.78125 C 9.578125 -5.539062 9.398438 -6.210938 9.046875 -6.796875 C 8.703125 -7.390625 8.21875 -7.851562 7.59375 -8.1875 C 6.96875 -8.519531 6.234375 -8.6875 5.390625 -8.6875 L 2.5625 -8.6875 L 2.5625 -0.875 Z M 5.390625 -0.875 "/></g></g></g><g fill="#101010" fill-opacity="1"><g transform="translate(76.711743, 113.582883)"><g><path d="M 8.3125 -0.875 L 8.3125 0 L 1.5625 0 L 1.5625 -9.5625 L 8.109375 -9.5625 L 8.109375 -8.6875 L 2.5625 -8.6875 L 2.5625 -5.28125 L 7.515625 -5.28125 L 7.515625 -4.421875 L 2.5625 -4.421875 L 2.5625 -0.875 Z M 8.3125 -0.875 "/></g></g></g><g fill="#101010" fill-opacity="1"><g transform="translate(85.848765, 113.582883)"><g/></g></g><g fill="#101010" fill-opacity="1"><g transform="translate(89.42709, 113.582883)"><g><path d="M 7.546875 -2.546875 L 2.21875 -2.546875 L 1.078125 0 L 0.03125 0 L 4.390625 -9.5625 L 5.390625 -9.5625 L 9.765625 0 L 8.703125 0 Z M 7.1875 -3.375 L 4.890625 -8.5 L 2.59375 -3.375 Z M 7.1875 -3.375 "/></g></g></g><g fill="#101010" fill-opacity="1"><g transform="translate(99.08308, 113.582883)"><g><path d="M 8.296875 -4.78125 L 9.265625 -4.78125 L 9.265625 -1.140625 C 8.816406 -0.742188 8.285156 -0.441406 7.671875 -0.234375 C 7.066406 -0.0234375 6.425781 0.078125 5.75 0.078125 C 4.789062 0.078125 3.925781 -0.128906 3.15625 -0.546875 C 2.394531 -0.960938 1.796875 -1.539062 1.359375 -2.28125 C 0.921875 -3.03125 0.703125 -3.863281 0.703125 -4.78125 C 0.703125 -5.695312 0.921875 -6.523438 1.359375 -7.265625 C 1.796875 -8.015625 2.394531 -8.597656 3.15625 -9.015625 C 3.925781 -9.429688 4.796875 -9.640625 5.765625 -9.640625 C 6.492188 -9.640625 7.160156 -9.519531 7.765625 -9.28125 C 8.378906 -9.050781 8.894531 -8.710938 9.3125 -8.265625 L 8.6875 -7.625 C 7.925781 -8.363281 6.960938 -8.734375 5.796875 -8.734375 C 5.023438 -8.734375 4.328125 -8.5625 3.703125 -8.21875 C 3.078125 -7.882812 2.585938 -7.414062 2.234375 -6.8125 C 1.878906 -6.207031 1.703125 -5.53125 1.703125 -4.78125 C 1.703125 -4.03125 1.878906 -3.351562 2.234375 -2.75 C 2.585938 -2.15625 3.070312 -1.679688 3.6875 -1.328125 C 4.3125 -0.984375 5.015625 -0.8125 5.796875 -0.8125 C 6.773438 -0.8125 7.609375 -1.0625 8.296875 -1.5625 Z M 8.296875 -4.78125 "/></g></g></g><g fill="#101010" fill-opacity="1"><g transform="translate(109.640497, 113.582883)"><g><path d="M 8.3125 -0.875 L 8.3125 0 L 1.5625 0 L 1.5625 -9.5625 L 8.109375 -9.5625 L 8.109375 -8.6875 L 2.5625 -8.6875 L 2.5625 -5.28125 L 7.515625 -5.28125 L 7.515625 -4.421875 L 2.5625 -4.421875 L 2.5625 -0.875 Z M 8.3125 -0.875 "/></g></g></g><g fill="#101010" fill-opacity="1"><g transform="translate(118.777519, 113.582883)"><g><path d="M 9.546875 -9.5625 L 9.546875 0 L 8.71875 0 L 2.5625 -7.75 L 2.5625 0 L 1.5625 0 L 1.5625 -9.5625 L 2.390625 -9.5625 L 8.546875 -1.796875 L 8.546875 -9.5625 Z M 9.546875 -9.5625 "/></g></g></g><g fill="#101010" fill-opacity="1"><g transform="translate(129.88125, 113.582883)"><g><path d="M 1.5625 -9.5625 L 5.453125 -9.5625 C 6.460938 -9.5625 7.351562 -9.359375 8.125 -8.953125 C 8.894531 -8.546875 9.492188 -7.976562 9.921875 -7.25 C 10.347656 -6.53125 10.5625 -5.707031 10.5625 -4.78125 C 10.5625 -3.851562 10.347656 -3.023438 9.921875 -2.296875 C 9.492188 -1.578125 8.894531 -1.015625 8.125 -0.609375 C 7.351562 -0.203125 6.460938 0 5.453125 0 L 1.5625 0 Z M 5.390625 -0.875 C 6.234375 -0.875 6.96875 -1.039062 7.59375 -1.375 C 8.21875 -1.707031 8.703125 -2.164062 9.046875 -2.75 C 9.398438 -3.332031 9.578125 -4.007812 9.578125 -4.78125 C 9.578125 -5.539062 9.398438 -6.210938 9.046875 -6.796875 C 8.703125 -7.390625 8.21875 -7.851562 7.59375 -8.1875 C 6.96875 -8.519531 6.234375 -8.6875 5.390625 -8.6875 L 2.5625 -8.6875 L 2.5625 -0.875 Z M 5.390625 -0.875 "/></g></g></g><g fill="#101010" fill-opacity="1"><g transform="translate(141.025933, 113.582883)"><g><path d="M 7.546875 -2.546875 L 2.21875 -2.546875 L 1.078125 0 L 0.03125 0 L 4.390625 -9.5625 L 5.390625 -9.5625 L 9.765625 0 L 8.703125 0 Z M 7.1875 -3.375 L 4.890625 -8.5 L 2.59375 -3.375 Z M 7.1875 -3.375 "/></g></g></g><g fill="#101010" fill-opacity="1"><g transform="translate(150.818517, 113.582883)"><g><path d="M 11.484375 -9.5625 L 11.484375 0 L 10.515625 0 L 10.515625 -7.640625 L 6.765625 -1.21875 L 6.28125 -1.21875 L 2.53125 -7.609375 L 2.53125 0 L 1.5625 0 L 1.5625 -9.5625 L 2.390625 -9.5625 L 6.546875 -2.46875 L 10.65625 -9.5625 Z M 11.484375 -9.5625 "/></g></g></g><g fill="#101010" fill-opacity="1"><g transform="translate(163.861645, 113.582883)"><g><path d="M 8.3125 -0.875 L 8.3125 0 L 1.5625 0 L 1.5625 -9.5625 L 8.109375 -9.5625 L 8.109375 -8.6875 L 2.5625 -8.6875 L 2.5625 -5.28125 L 7.515625 -5.28125 L 7.515625 -4.421875 L 2.5625 -4.421875 L 2.5625 -0.875 Z M 8.3125 -0.875 "/></g></g></g><g fill="#101010" fill-opacity="1"><g transform="translate(172.998666, 113.582883)"><g><path d="M 9.546875 -9.5625 L 9.546875 0 L 8.71875 0 L 2.5625 -7.75 L 2.5625 0 L 1.5625 0 L 1.5625 -9.5625 L 2.390625 -9.5625 L 8.546875 -1.796875 L 8.546875 -9.5625 Z M 9.546875 -9.5625 "/></g></g></g><g fill="#101010" fill-opacity="1"><g transform="translate(184.102387, 113.582883)"><g><path d="M 3.40625 -8.6875 L 0.046875 -8.6875 L 0.046875 -9.5625 L 7.78125 -9.5625 L 7.78125 -8.6875 L 4.421875 -8.6875 L 4.421875 0 L 3.40625 0 Z M 3.40625 -8.6875 "/></g></g></g><g fill="#101010" fill-opacity="1"><g transform="translate(191.805328, 113.582883)"><g><path d="M 5.734375 0.078125 C 4.785156 0.078125 3.925781 -0.128906 3.15625 -0.546875 C 2.382812 -0.972656 1.78125 -1.554688 1.34375 -2.296875 C 0.914062 -3.035156 0.703125 -3.863281 0.703125 -4.78125 C 0.703125 -5.695312 0.914062 -6.523438 1.34375 -7.265625 C 1.78125 -8.003906 2.382812 -8.582031 3.15625 -9 C 3.925781 -9.425781 4.785156 -9.640625 5.734375 -9.640625 C 6.679688 -9.640625 7.535156 -9.429688 8.296875 -9.015625 C 9.054688 -8.597656 9.65625 -8.015625 10.09375 -7.265625 C 10.53125 -6.523438 10.75 -5.695312 10.75 -4.78125 C 10.75 -3.863281 10.53125 -3.03125 10.09375 -2.28125 C 9.65625 -1.539062 9.054688 -0.960938 8.296875 -0.546875 C 7.535156 -0.128906 6.679688 0.078125 5.734375 0.078125 Z M 5.734375 -0.8125 C 6.492188 -0.8125 7.175781 -0.984375 7.78125 -1.328125 C 8.394531 -1.671875 8.875 -2.144531 9.21875 -2.75 C 9.5625 -3.351562 9.734375 -4.03125 9.734375 -4.78125 C 9.734375 -5.53125 9.5625 -6.207031 9.21875 -6.8125 C 8.875 -7.414062 8.394531 -7.882812 7.78125 -8.21875 C 7.175781 -8.5625 6.492188 -8.734375 5.734375 -8.734375 C 4.984375 -8.734375 4.300781 -8.5625 3.6875 -8.21875 C 3.070312 -7.882812 2.585938 -7.414062 2.234375 -6.8125 C 1.878906 -6.207031 1.703125 -5.53125 1.703125 -4.78125 C 1.703125 -4.03125 1.878906 -3.351562 2.234375 -2.75 C 2.585938 -2.144531 3.070312 -1.671875 3.6875 -1.328125 C 4.300781 -0.984375 4.984375 -0.8125 5.734375 -0.8125 Z M 5.734375 -0.8125 "/></g></g></g><g fill="#101010" fill-opacity="1"><g transform="translate(203.264142, 113.582883)"><g/></g></g><g fill="#101010" fill-opacity="1"><g transform="translate(206.842467, 113.582883)"><g><path d="M 1.5625 -9.5625 L 5.453125 -9.5625 C 6.460938 -9.5625 7.351562 -9.359375 8.125 -8.953125 C 8.894531 -8.546875 9.492188 -7.976562 9.921875 -7.25 C 10.347656 -6.53125 10.5625 -5.707031 10.5625 -4.78125 C 10.5625 -3.851562 10.347656 -3.023438 9.921875 -2.296875 C 9.492188 -1.578125 8.894531 -1.015625 8.125 -0.609375 C 7.351562 -0.203125 6.460938 0 5.453125 0 L 1.5625 0 Z M 5.390625 -0.875 C 6.234375 -0.875 6.96875 -1.039062 7.59375 -1.375 C 8.21875 -1.707031 8.703125 -2.164062 9.046875 -2.75 C 9.398438 -3.332031 9.578125 -4.007812 9.578125 -4.78125 C 9.578125 -5.539062 9.398438 -6.210938 9.046875 -6.796875 C 8.703125 -7.390625 8.21875 -7.851562 7.59375 -8.1875 C 6.96875 -8.519531 6.234375 -8.6875 5.390625 -8.6875 L 2.5625 -8.6875 L 2.5625 -0.875 Z M 5.390625 -0.875 "/></g></g></g><g fill="#101010" fill-opacity="1"><g transform="translate(218.123734, 113.582883)"><g><path d="M 8.3125 -0.875 L 8.3125 0 L 1.5625 0 L 1.5625 -9.5625 L 8.109375 -9.5625 L 8.109375 -8.6875 L 2.5625 -8.6875 L 2.5625 -5.28125 L 7.515625 -5.28125 L 7.515625 -4.421875 L 2.5625 -4.421875 L 2.5625 -0.875 Z M 8.3125 -0.875 "/></g></g></g><g fill="#101010" fill-opacity="1"><g transform="translate(227.260745, 113.582883)"><g/></g></g><g fill="#101010" fill-opacity="1"><g transform="translate(230.83907, 113.582883)"><g><path d="M 5.140625 -9.5625 C 6.359375 -9.5625 7.3125 -9.269531 8 -8.6875 C 8.695312 -8.101562 9.046875 -7.300781 9.046875 -6.28125 C 9.046875 -5.257812 8.695312 -4.457031 8 -3.875 C 7.3125 -3.300781 6.359375 -3.015625 5.140625 -3.015625 L 2.5625 -3.015625 L 2.5625 0 L 1.5625 0 L 1.5625 -9.5625 Z M 5.109375 -3.90625 C 6.054688 -3.90625 6.78125 -4.109375 7.28125 -4.515625 C 7.78125 -4.929688 8.03125 -5.519531 8.03125 -6.28125 C 8.03125 -7.050781 7.78125 -7.644531 7.28125 -8.0625 C 6.78125 -8.476562 6.054688 -8.6875 5.109375 -8.6875 L 2.5625 -8.6875 L 2.5625 -3.90625 Z M 5.109375 -3.90625 "/></g></g></g><g fill="#101010" fill-opacity="1"><g transform="translate(240.645316, 113.582883)"><g><path d="M 5.734375 0.078125 C 4.785156 0.078125 3.925781 -0.128906 3.15625 -0.546875 C 2.382812 -0.972656 1.78125 -1.554688 1.34375 -2.296875 C 0.914062 -3.035156 0.703125 -3.863281 0.703125 -4.78125 C 0.703125 -5.695312 0.914062 -6.523438 1.34375 -7.265625 C 1.78125 -8.003906 2.382812 -8.582031 3.15625 -9 C 3.925781 -9.425781 4.785156 -9.640625 5.734375 -9.640625 C 6.679688 -9.640625 7.535156 -9.429688 8.296875 -9.015625 C 9.054688 -8.597656 9.65625 -8.015625 10.09375 -7.265625 C 10.53125 -6.523438 10.75 -5.695312 10.75 -4.78125 C 10.75 -3.863281 10.53125 -3.03125 10.09375 -2.28125 C 9.65625 -1.539062 9.054688 -0.960938 8.296875 -0.546875 C 7.535156 -0.128906 6.679688 0.078125 5.734375 0.078125 Z M 5.734375 -0.8125 C 6.492188 -0.8125 7.175781 -0.984375 7.78125 -1.328125 C 8.394531 -1.671875 8.875 -2.144531 9.21875 -2.75 C 9.5625 -3.351562 9.734375 -4.03125 9.734375 -4.78125 C 9.734375 -5.53125 9.5625 -6.207031 9.21875 -6.8125 C 8.875 -7.414062 8.394531 -7.882812 7.78125 -8.21875 C 7.175781 -8.5625 6.492188 -8.734375 5.734375 -8.734375 C 4.984375 -8.734375 4.300781 -8.5625 3.6875 -8.21875 C 3.070312 -7.882812 2.585938 -7.414062 2.234375 -6.8125 C 1.878906 -6.207031 1.703125 -5.53125 1.703125 -4.78125 C 1.703125 -4.03125 1.878906 -3.351562 2.234375 -2.75 C 2.585938 -2.144531 3.070312 -1.671875 3.6875 -1.328125 C 4.300781 -0.984375 4.984375 -0.8125 5.734375 -0.8125 Z M 5.734375 -0.8125 "/></g></g></g><g fill="#101010" fill-opacity="1"><g transform="translate(252.104129, 113.582883)"><g><path d="M 4.1875 0.078125 C 3.476562 0.078125 2.796875 -0.03125 2.140625 -0.25 C 1.492188 -0.476562 0.992188 -0.78125 0.640625 -1.15625 L 1.03125 -1.9375 C 1.382812 -1.59375 1.847656 -1.3125 2.421875 -1.09375 C 2.992188 -0.882812 3.582031 -0.78125 4.1875 -0.78125 C 5.039062 -0.78125 5.679688 -0.9375 6.109375 -1.25 C 6.546875 -1.5625 6.765625 -1.96875 6.765625 -2.46875 C 6.765625 -2.851562 6.644531 -3.160156 6.40625 -3.390625 C 6.175781 -3.617188 5.890625 -3.789062 5.546875 -3.90625 C 5.210938 -4.03125 4.75 -4.164062 4.15625 -4.3125 C 3.4375 -4.5 2.859375 -4.675781 2.421875 -4.84375 C 1.992188 -5.007812 1.628906 -5.265625 1.328125 -5.609375 C 1.023438 -5.953125 0.875 -6.421875 0.875 -7.015625 C 0.875 -7.503906 1 -7.945312 1.25 -8.34375 C 1.507812 -8.738281 1.898438 -9.050781 2.421875 -9.28125 C 2.953125 -9.519531 3.609375 -9.640625 4.390625 -9.640625 C 4.941406 -9.640625 5.476562 -9.5625 6 -9.40625 C 6.519531 -9.257812 6.972656 -9.054688 7.359375 -8.796875 L 7.015625 -7.984375 C 6.617188 -8.253906 6.191406 -8.453125 5.734375 -8.578125 C 5.273438 -8.710938 4.828125 -8.78125 4.390625 -8.78125 C 3.554688 -8.78125 2.925781 -8.617188 2.5 -8.296875 C 2.082031 -7.972656 1.875 -7.554688 1.875 -7.046875 C 1.875 -6.660156 1.988281 -6.351562 2.21875 -6.125 C 2.445312 -5.894531 2.738281 -5.71875 3.09375 -5.59375 C 3.445312 -5.46875 3.914062 -5.332031 4.5 -5.1875 C 5.207031 -5.019531 5.773438 -4.847656 6.203125 -4.671875 C 6.640625 -4.503906 7.003906 -4.25 7.296875 -3.90625 C 7.597656 -3.570312 7.75 -3.113281 7.75 -2.53125 C 7.75 -2.039062 7.617188 -1.597656 7.359375 -1.203125 C 7.109375 -0.804688 6.710938 -0.492188 6.171875 -0.265625 C 5.628906 -0.0351562 4.96875 0.078125 4.1875 0.078125 Z M 4.1875 0.078125 "/></g></g></g><g fill="#101010" fill-opacity="1"><g transform="translate(260.367035, 113.582883)"><g><path d="M 3.40625 -8.6875 L 0.046875 -8.6875 L 0.046875 -9.5625 L 7.78125 -9.5625 L 7.78125 -8.6875 L 4.421875 -8.6875 L 4.421875 0 L 3.40625 0 Z M 3.40625 -8.6875 "/></g></g></g><g fill="#101010" fill-opacity="1"><g transform="translate(268.069977, 113.582883)"><g><path d="M 5.734375 0.078125 C 4.785156 0.078125 3.925781 -0.128906 3.15625 -0.546875 C 2.382812 -0.972656 1.78125 -1.554688 1.34375 -2.296875 C 0.914062 -3.035156 0.703125 -3.863281 0.703125 -4.78125 C 0.703125 -5.695312 0.914062 -6.523438 1.34375 -7.265625 C 1.78125 -8.003906 2.382812 -8.582031 3.15625 -9 C 3.925781 -9.425781 4.785156 -9.640625 5.734375 -9.640625 C 6.679688 -9.640625 7.535156 -9.429688 8.296875 -9.015625 C 9.054688 -8.597656 9.65625 -8.015625 10.09375 -7.265625 C 10.53125 -6.523438 10.75 -5.695312 10.75 -4.78125 C 10.75 -3.863281 10.53125 -3.03125 10.09375 -2.28125 C 9.65625 -1.539062 9.054688 -0.960938 8.296875 -0.546875 C 7.535156 -0.128906 6.679688 0.078125 5.734375 0.078125 Z M 5.734375 -0.8125 C 6.492188 -0.8125 7.175781 -0.984375 7.78125 -1.328125 C 8.394531 -1.671875 8.875 -2.144531 9.21875 -2.75 C 9.5625 -3.351562 9.734375 -4.03125 9.734375 -4.78125 C 9.734375 -5.53125 9.5625 -6.207031 9.21875 -6.8125 C 8.875 -7.414062 8.394531 -7.882812 7.78125 -8.21875 C 7.175781 -8.5625 6.492188 -8.734375 5.734375 -8.734375 C 4.984375 -8.734375 4.300781 -8.5625 3.6875 -8.21875 C 3.070312 -7.882812 2.585938 -7.414062 2.234375 -6.8125 C 1.878906 -6.207031 1.703125 -5.53125 1.703125 -4.78125 C 1.703125 -4.03125 1.878906 -3.351562 2.234375 -2.75 C 2.585938 -2.144531 3.070312 -1.671875 3.6875 -1.328125 C 4.300781 -0.984375 4.984375 -0.8125 5.734375 -0.8125 Z M 5.734375 -0.8125 "/></g></g></g><g fill="#101010" fill-opacity="1"><g transform="translate(279.528812, 113.582883)"><g><path d="M 4.1875 0.078125 C 3.476562 0.078125 2.796875 -0.03125 2.140625 -0.25 C 1.492188 -0.476562 0.992188 -0.78125 0.640625 -1.15625 L 1.03125 -1.9375 C 1.382812 -1.59375 1.847656 -1.3125 2.421875 -1.09375 C 2.992188 -0.882812 3.582031 -0.78125 4.1875 -0.78125 C 5.039062 -0.78125 5.679688 -0.9375 6.109375 -1.25 C 6.546875 -1.5625 6.765625 -1.96875 6.765625 -2.46875 C 6.765625 -2.851562 6.644531 -3.160156 6.40625 -3.390625 C 6.175781 -3.617188 5.890625 -3.789062 5.546875 -3.90625 C 5.210938 -4.03125 4.75 -4.164062 4.15625 -4.3125 C 3.4375 -4.5 2.859375 -4.675781 2.421875 -4.84375 C 1.992188 -5.007812 1.628906 -5.265625 1.328125 -5.609375 C 1.023438 -5.953125 0.875 -6.421875 0.875 -7.015625 C 0.875 -7.503906 1 -7.945312 1.25 -8.34375 C 1.507812 -8.738281 1.898438 -9.050781 2.421875 -9.28125 C 2.953125 -9.519531 3.609375 -9.640625 4.390625 -9.640625 C 4.941406 -9.640625 5.476562 -9.5625 6 -9.40625 C 6.519531 -9.257812 6.972656 -9.054688 7.359375 -8.796875 L 7.015625 -7.984375 C 6.617188 -8.253906 6.191406 -8.453125 5.734375 -8.578125 C 5.273438 -8.710938 4.828125 -8.78125 4.390625 -8.78125 C 3.554688 -8.78125 2.925781 -8.617188 2.5 -8.296875 C 2.082031 -7.972656 1.875 -7.554688 1.875 -7.046875 C 1.875 -6.660156 1.988281 -6.351562 2.21875 -6.125 C 2.445312 -5.894531 2.738281 -5.71875 3.09375 -5.59375 C 3.445312 -5.46875 3.914062 -5.332031 4.5 -5.1875 C 5.207031 -5.019531 5.773438 -4.847656 6.203125 -4.671875 C 6.640625 -4.503906 7.003906 -4.25 7.296875 -3.90625 C 7.597656 -3.570312 7.75 -3.113281 7.75 -2.53125 C 7.75 -2.039062 7.617188 -1.597656 7.359375 -1.203125 C 7.109375 -0.804688 6.710938 -0.492188 6.171875 -0.265625 C 5.628906 -0.0351562 4.96875 0.078125 4.1875 0.078125 Z M 4.1875 0.078125 "/></g></g></g><g fill="#101010" fill-opacity="1"><g transform="translate(287.928312, 113.582883)"><g/></g></g><g fill="#101010" fill-opacity="1"><g transform="translate(291.506637, 113.582883)"><g><path d="M 1.5625 -9.5625 L 5.453125 -9.5625 C 6.460938 -9.5625 7.351562 -9.359375 8.125 -8.953125 C 8.894531 -8.546875 9.492188 -7.976562 9.921875 -7.25 C 10.347656 -6.53125 10.5625 -5.707031 10.5625 -4.78125 C 10.5625 -3.851562 10.347656 -3.023438 9.921875 -2.296875 C 9.492188 -1.578125 8.894531 -1.015625 8.125 -0.609375 C 7.351562 -0.203125 6.460938 0 5.453125 0 L 1.5625 0 Z M 5.390625 -0.875 C 6.234375 -0.875 6.96875 -1.039062 7.59375 -1.375 C 8.21875 -1.707031 8.703125 -2.164062 9.046875 -2.75 C 9.398438 -3.332031 9.578125 -4.007812 9.578125 -4.78125 C 9.578125 -5.539062 9.398438 -6.210938 9.046875 -6.796875 C 8.703125 -7.390625 8.21875 -7.851562 7.59375 -8.1875 C 6.96875 -8.519531 6.234375 -8.6875 5.390625 -8.6875 L 2.5625 -8.6875 L 2.5625 -0.875 Z M 5.390625 -0.875 "/></g></g></g><g fill="#101010" fill-opacity="1"><g transform="translate(302.787926, 113.582883)"><g><path d="M 8.3125 -0.875 L 8.3125 0 L 1.5625 0 L 1.5625 -9.5625 L 8.109375 -9.5625 L 8.109375 -8.6875 L 2.5625 -8.6875 L 2.5625 -5.28125 L 7.515625 -5.28125 L 7.515625 -4.421875 L 2.5625 -4.421875 L 2.5625 -0.875 Z M 8.3125 -0.875 "/></g></g></g><g fill="#101010" fill-opacity="1"><g transform="translate(311.924936, 113.582883)"><g/></g></g><g fill="#101010" fill-opacity="1"><g transform="translate(315.503262, 113.582883)"><g><path d="M 4.1875 0.078125 C 3.476562 0.078125 2.796875 -0.03125 2.140625 -0.25 C 1.492188 -0.476562 0.992188 -0.78125 0.640625 -1.15625 L 1.03125 -1.9375 C 1.382812 -1.59375 1.847656 -1.3125 2.421875 -1.09375 C 2.992188 -0.882812 3.582031 -0.78125 4.1875 -0.78125 C 5.039062 -0.78125 5.679688 -0.9375 6.109375 -1.25 C 6.546875 -1.5625 6.765625 -1.96875 6.765625 -2.46875 C 6.765625 -2.851562 6.644531 -3.160156 6.40625 -3.390625 C 6.175781 -3.617188 5.890625 -3.789062 5.546875 -3.90625 C 5.210938 -4.03125 4.75 -4.164062 4.15625 -4.3125 C 3.4375 -4.5 2.859375 -4.675781 2.421875 -4.84375 C 1.992188 -5.007812 1.628906 -5.265625 1.328125 -5.609375 C 1.023438 -5.953125 0.875 -6.421875 0.875 -7.015625 C 0.875 -7.503906 1 -7.945312 1.25 -8.34375 C 1.507812 -8.738281 1.898438 -9.050781 2.421875 -9.28125 C 2.953125 -9.519531 3.609375 -9.640625 4.390625 -9.640625 C 4.941406 -9.640625 5.476562 -9.5625 6 -9.40625 C 6.519531 -9.257812 6.972656 -9.054688 7.359375 -8.796875 L 7.015625 -7.984375 C 6.617188 -8.253906 6.191406 -8.453125 5.734375 -8.578125 C 5.273438 -8.710938 4.828125 -8.78125 4.390625 -8.78125 C 3.554688 -8.78125 2.925781 -8.617188 2.5 -8.296875 C 2.082031 -7.972656 1.875 -7.554688 1.875 -7.046875 C 1.875 -6.660156 1.988281 -6.351562 2.21875 -6.125 C 2.445312 -5.894531 2.738281 -5.71875 3.09375 -5.59375 C 3.445312 -5.46875 3.914062 -5.332031 4.5 -5.1875 C 5.207031 -5.019531 5.773438 -4.847656 6.203125 -4.671875 C 6.640625 -4.503906 7.003906 -4.25 7.296875 -3.90625 C 7.597656 -3.570312 7.75 -3.113281 7.75 -2.53125 C 7.75 -2.039062 7.617188 -1.597656 7.359375 -1.203125 C 7.109375 -0.804688 6.710938 -0.492188 6.171875 -0.265625 C 5.628906 -0.0351562 4.96875 0.078125 4.1875 0.078125 Z M 4.1875 0.078125 "/></g></g></g><g fill="#101010" fill-opacity="1"><g transform="translate(323.902761, 113.582883)"><g><path d="M 7.546875 -2.546875 L 2.21875 -2.546875 L 1.078125 0 L 0.03125 0 L 4.390625 -9.5625 L 5.390625 -9.5625 L 9.765625 0 L 8.703125 0 Z M 7.1875 -3.375 L 4.890625 -8.5 L 2.59375 -3.375 Z M 7.1875 -3.375 "/></g></g></g><g fill="#101010" fill-opacity="1"><g transform="translate(333.490443, 113.582883)"><g><path d="M 5.40625 0.078125 C 4.164062 0.078125 3.195312 -0.273438 2.5 -0.984375 C 1.8125 -1.691406 1.46875 -2.722656 1.46875 -4.078125 L 1.46875 -9.5625 L 2.484375 -9.5625 L 2.484375 -4.125 C 2.484375 -3.007812 2.734375 -2.175781 3.234375 -1.625 C 3.734375 -1.082031 4.457031 -0.8125 5.40625 -0.8125 C 6.363281 -0.8125 7.09375 -1.082031 7.59375 -1.625 C 8.09375 -2.175781 8.34375 -3.007812 8.34375 -4.125 L 8.34375 -9.5625 L 9.328125 -9.5625 L 9.328125 -4.078125 C 9.328125 -2.722656 8.984375 -1.691406 8.296875 -0.984375 C 7.609375 -0.273438 6.644531 0.078125 5.40625 0.078125 Z M 6.390625 -12.03125 L 7.6875 -12.03125 L 5.46875 -10.34375 L 4.515625 -10.34375 Z M 6.390625 -12.03125 "/></g></g></g><g fill="#101010" fill-opacity="1"><g transform="translate(344.307367, 113.582883)"><g><path d="M 1.5625 -9.5625 L 5.453125 -9.5625 C 6.460938 -9.5625 7.351562 -9.359375 8.125 -8.953125 C 8.894531 -8.546875 9.492188 -7.976562 9.921875 -7.25 C 10.347656 -6.53125 10.5625 -5.707031 10.5625 -4.78125 C 10.5625 -3.851562 10.347656 -3.023438 9.921875 -2.296875 C 9.492188 -1.578125 8.894531 -1.015625 8.125 -0.609375 C 7.351562 -0.203125 6.460938 0 5.453125 0 L 1.5625 0 Z M 5.390625 -0.875 C 6.234375 -0.875 6.96875 -1.039062 7.59375 -1.375 C 8.21875 -1.707031 8.703125 -2.164062 9.046875 -2.75 C 9.398438 -3.332031 9.578125 -4.007812 9.578125 -4.78125 C 9.578125 -5.539062 9.398438 -6.210938 9.046875 -6.796875 C 8.703125 -7.390625 8.21875 -7.851562 7.59375 -8.1875 C 6.96875 -8.519531 6.234375 -8.6875 5.390625 -8.6875 L 2.5625 -8.6875 L 2.5625 -0.875 Z M 5.390625 -0.875 "/></g></g></g><g fill="#101010" fill-opacity="1"><g transform="translate(355.588634, 113.582883)"><g><path d="M 8.3125 -0.875 L 8.3125 0 L 1.5625 0 L 1.5625 -9.5625 L 8.109375 -9.5625 L 8.109375 -8.6875 L 2.5625 -8.6875 L 2.5625 -5.28125 L 7.515625 -5.28125 L 7.515625 -4.421875 L 2.5625 -4.421875 L 2.5625 -0.875 Z M 8.3125 -0.875 "/></g></g></g><path stroke-linecap="round" transform="matrix(0.745993, 0, 0, 0.745993, 10.441012, 95.98267)" fill="none" stroke-linejoin="miter" d="M 2.000798 2.002555 L 461.853279 2.002555 " stroke="#000000" stroke-width="4" stroke-opacity="1" stroke-miterlimit="4"/></svg>